<mxfile host="app.diagrams.net" agent="Mozilla/5.0 (Windows NT 10.0; Win64; x64) AppleWebKit/537.36 (KHTML, like Gecko) Chrome/138.0.0.0 Safari/537.36" version="28.0.7">
  <diagram name="Page-1" id="XIZshbfn7NMJk_1GvI07">
    <mxGraphModel dx="4168" dy="3828" grid="0" gridSize="10" guides="1" tooltips="1" connect="1" arrows="1" fold="1" page="0" pageScale="1" pageWidth="850" pageHeight="1100" math="0" shadow="0">
      <root>
        <mxCell id="0" />
        <mxCell id="1" parent="0" />
        <mxCell id="Tr-3GjtO5WyHJFNXS32t-50" value="" style="group" vertex="1" connectable="0" parent="1">
          <mxGeometry x="51" y="-877" width="1086.5" height="1083" as="geometry" />
        </mxCell>
        <mxCell id="Hcrr5EgMV3pNzxd26oQe-16" value="" style="rounded=0;whiteSpace=wrap;html=1;" parent="Tr-3GjtO5WyHJFNXS32t-50" vertex="1">
          <mxGeometry width="1086.5" height="1083" as="geometry" />
        </mxCell>
        <mxCell id="QBpZ6xTL5SgzaReXafCs-24" style="edgeStyle=none;curved=1;rounded=0;orthogonalLoop=1;jettySize=auto;html=1;fontSize=12;startSize=8;endSize=8;" parent="Tr-3GjtO5WyHJFNXS32t-50" source="JjKQ8CQkzTSP6PZhoDlF-5" target="JjKQ8CQkzTSP6PZhoDlF-6" edge="1">
          <mxGeometry relative="1" as="geometry">
            <mxPoint x="775" y="218" as="targetPoint" />
          </mxGeometry>
        </mxCell>
        <mxCell id="JjKQ8CQkzTSP6PZhoDlF-5" value="&lt;span style=&quot;font-size: 22px;&quot;&gt;Set PinModes&lt;/span&gt;" style="whiteSpace=wrap;html=1;" parent="Tr-3GjtO5WyHJFNXS32t-50" vertex="1">
          <mxGeometry x="541" y="232" width="120" height="60" as="geometry" />
        </mxCell>
        <mxCell id="Tr-3GjtO5WyHJFNXS32t-1" style="edgeStyle=orthogonalEdgeStyle;rounded=0;orthogonalLoop=1;jettySize=auto;html=1;exitX=0.5;exitY=1;exitDx=0;exitDy=0;entryX=0.5;entryY=0;entryDx=0;entryDy=0;" edge="1" parent="Tr-3GjtO5WyHJFNXS32t-50" source="JjKQ8CQkzTSP6PZhoDlF-6" target="QBpZ6xTL5SgzaReXafCs-1">
          <mxGeometry relative="1" as="geometry" />
        </mxCell>
        <mxCell id="JjKQ8CQkzTSP6PZhoDlF-6" value="&lt;span style=&quot;font-size: 17px;&quot;&gt;Set D4 and D5 as INPUT&lt;/span&gt;" style="whiteSpace=wrap;html=1;" parent="Tr-3GjtO5WyHJFNXS32t-50" vertex="1">
          <mxGeometry x="719" y="232" width="120" height="60" as="geometry" />
        </mxCell>
        <mxCell id="Tr-3GjtO5WyHJFNXS32t-9" style="edgeStyle=orthogonalEdgeStyle;rounded=0;orthogonalLoop=1;jettySize=auto;html=1;exitX=0.5;exitY=1;exitDx=0;exitDy=0;entryX=0.5;entryY=0;entryDx=0;entryDy=0;" edge="1" parent="Tr-3GjtO5WyHJFNXS32t-50" source="JjKQ8CQkzTSP6PZhoDlF-8" target="Tr-3GjtO5WyHJFNXS32t-8">
          <mxGeometry relative="1" as="geometry" />
        </mxCell>
        <mxCell id="JjKQ8CQkzTSP6PZhoDlF-8" value="&lt;font style=&quot;font-size: 16px;&quot;&gt;Send handshake packet over BT&lt;/font&gt;" style="whiteSpace=wrap;html=1;" parent="Tr-3GjtO5WyHJFNXS32t-50" vertex="1">
          <mxGeometry x="719" y="639" width="120" height="60" as="geometry" />
        </mxCell>
        <mxCell id="QBpZ6xTL5SgzaReXafCs-25" style="edgeStyle=none;curved=1;rounded=0;orthogonalLoop=1;jettySize=auto;html=1;fontSize=12;startSize=8;endSize=8;" parent="Tr-3GjtO5WyHJFNXS32t-50" source="JjKQ8CQkzTSP6PZhoDlF-22" target="JjKQ8CQkzTSP6PZhoDlF-5" edge="1">
          <mxGeometry relative="1" as="geometry" />
        </mxCell>
        <mxCell id="JjKQ8CQkzTSP6PZhoDlF-22" value="&lt;font style=&quot;font-size: 22px;&quot;&gt;Start&lt;/font&gt;" style="whiteSpace=wrap;html=1;" parent="Tr-3GjtO5WyHJFNXS32t-50" vertex="1">
          <mxGeometry x="351" y="232" width="120" height="60" as="geometry" />
        </mxCell>
        <mxCell id="Tr-3GjtO5WyHJFNXS32t-3" value="" style="edgeStyle=orthogonalEdgeStyle;rounded=0;orthogonalLoop=1;jettySize=auto;html=1;" edge="1" parent="Tr-3GjtO5WyHJFNXS32t-50" source="QBpZ6xTL5SgzaReXafCs-1" target="Tr-3GjtO5WyHJFNXS32t-2">
          <mxGeometry relative="1" as="geometry" />
        </mxCell>
        <mxCell id="QBpZ6xTL5SgzaReXafCs-1" value="&lt;font style=&quot;font-size: 17px;&quot;&gt;D6 and D7 as BT RX, TX&lt;/font&gt;" style="whiteSpace=wrap;html=1;" parent="Tr-3GjtO5WyHJFNXS32t-50" vertex="1">
          <mxGeometry x="719" y="314" width="120" height="60" as="geometry" />
        </mxCell>
        <mxCell id="Hcrr5EgMV3pNzxd26oQe-17" value="&lt;font style=&quot;font-size: 120px;&quot;&gt;Arduino Nano&lt;/font&gt;" style="text;html=1;align=center;verticalAlign=middle;resizable=0;points=[];autosize=1;strokeColor=none;fillColor=none;" parent="Tr-3GjtO5WyHJFNXS32t-50" vertex="1">
          <mxGeometry x="163.5" y="20" width="752" height="156" as="geometry" />
        </mxCell>
        <mxCell id="Tr-3GjtO5WyHJFNXS32t-6" style="edgeStyle=orthogonalEdgeStyle;rounded=0;orthogonalLoop=1;jettySize=auto;html=1;exitX=0.5;exitY=1;exitDx=0;exitDy=0;entryX=0.5;entryY=0;entryDx=0;entryDy=0;" edge="1" parent="Tr-3GjtO5WyHJFNXS32t-50" source="Tr-3GjtO5WyHJFNXS32t-2" target="JjKQ8CQkzTSP6PZhoDlF-8">
          <mxGeometry relative="1" as="geometry" />
        </mxCell>
        <mxCell id="Tr-3GjtO5WyHJFNXS32t-7" value="YES" style="edgeLabel;html=1;align=center;verticalAlign=middle;resizable=0;points=[];" vertex="1" connectable="0" parent="Tr-3GjtO5WyHJFNXS32t-6">
          <mxGeometry x="-0.2174" y="2" relative="1" as="geometry">
            <mxPoint x="-2" y="3" as="offset" />
          </mxGeometry>
        </mxCell>
        <mxCell id="Tr-3GjtO5WyHJFNXS32t-2" value="&lt;font style=&quot;font-size: 19px;&quot;&gt;Has Serial Monitor been opened?&lt;/font&gt;" style="rhombus;whiteSpace=wrap;html=1;aspect=fixed;" vertex="1" parent="Tr-3GjtO5WyHJFNXS32t-50">
          <mxGeometry x="701" y="424" width="156" height="156" as="geometry" />
        </mxCell>
        <mxCell id="Tr-3GjtO5WyHJFNXS32t-4" style="edgeStyle=orthogonalEdgeStyle;rounded=0;orthogonalLoop=1;jettySize=auto;html=1;entryX=1;entryY=0.5;entryDx=0;entryDy=0;startArrow=classic;startFill=1;endArrow=none;endFill=0;exitX=0.5;exitY=1;exitDx=0;exitDy=0;" edge="1" parent="Tr-3GjtO5WyHJFNXS32t-50" source="Tr-3GjtO5WyHJFNXS32t-2" target="Tr-3GjtO5WyHJFNXS32t-2">
          <mxGeometry relative="1" as="geometry">
            <Array as="points">
              <mxPoint x="923" y="580" />
              <mxPoint x="923" y="502" />
            </Array>
          </mxGeometry>
        </mxCell>
        <mxCell id="Tr-3GjtO5WyHJFNXS32t-5" value="NO" style="edgeLabel;html=1;align=center;verticalAlign=middle;resizable=0;points=[];" vertex="1" connectable="0" parent="Tr-3GjtO5WyHJFNXS32t-4">
          <mxGeometry x="0.7812" y="1" relative="1" as="geometry">
            <mxPoint as="offset" />
          </mxGeometry>
        </mxCell>
        <mxCell id="Tr-3GjtO5WyHJFNXS32t-27" style="edgeStyle=orthogonalEdgeStyle;rounded=0;orthogonalLoop=1;jettySize=auto;html=1;entryX=1;entryY=0.5;entryDx=0;entryDy=0;" edge="1" parent="Tr-3GjtO5WyHJFNXS32t-50" source="Tr-3GjtO5WyHJFNXS32t-8" target="Tr-3GjtO5WyHJFNXS32t-10">
          <mxGeometry relative="1" as="geometry" />
        </mxCell>
        <mxCell id="Tr-3GjtO5WyHJFNXS32t-8" value="&lt;font style=&quot;font-size: 17px;&quot;&gt;Initialize 8-bit packet of 0s&lt;/font&gt;" style="whiteSpace=wrap;html=1;" vertex="1" parent="Tr-3GjtO5WyHJFNXS32t-50">
          <mxGeometry x="722" y="732" width="120" height="60" as="geometry" />
        </mxCell>
        <mxCell id="Tr-3GjtO5WyHJFNXS32t-26" style="edgeStyle=orthogonalEdgeStyle;rounded=0;orthogonalLoop=1;jettySize=auto;html=1;exitX=0;exitY=0.5;exitDx=0;exitDy=0;" edge="1" parent="Tr-3GjtO5WyHJFNXS32t-50" source="Tr-3GjtO5WyHJFNXS32t-10" target="Tr-3GjtO5WyHJFNXS32t-17">
          <mxGeometry relative="1" as="geometry" />
        </mxCell>
        <mxCell id="Tr-3GjtO5WyHJFNXS32t-28" value="YES" style="edgeLabel;html=1;align=center;verticalAlign=middle;resizable=0;points=[];" vertex="1" connectable="0" parent="Tr-3GjtO5WyHJFNXS32t-26">
          <mxGeometry x="0.0794" y="1" relative="1" as="geometry">
            <mxPoint as="offset" />
          </mxGeometry>
        </mxCell>
        <mxCell id="Tr-3GjtO5WyHJFNXS32t-30" style="edgeStyle=orthogonalEdgeStyle;rounded=0;orthogonalLoop=1;jettySize=auto;html=1;entryX=1;entryY=0.5;entryDx=0;entryDy=0;" edge="1" parent="Tr-3GjtO5WyHJFNXS32t-50" source="Tr-3GjtO5WyHJFNXS32t-10" target="Tr-3GjtO5WyHJFNXS32t-10">
          <mxGeometry relative="1" as="geometry">
            <mxPoint x="754.9130540930707" y="1042.6956840183425" as="targetPoint" />
            <Array as="points">
              <mxPoint x="681" y="826" />
              <mxPoint x="759" y="826" />
            </Array>
          </mxGeometry>
        </mxCell>
        <mxCell id="Tr-3GjtO5WyHJFNXS32t-31" value="NO" style="edgeLabel;html=1;align=center;verticalAlign=middle;resizable=0;points=[];" vertex="1" connectable="0" parent="Tr-3GjtO5WyHJFNXS32t-30">
          <mxGeometry x="-0.244" relative="1" as="geometry">
            <mxPoint x="-16" as="offset" />
          </mxGeometry>
        </mxCell>
        <mxCell id="Tr-3GjtO5WyHJFNXS32t-10" value="&lt;font style=&quot;font-size: 21px;&quot;&gt;Is D4&amp;nbsp;&lt;/font&gt;&lt;div&gt;&lt;font style=&quot;font-size: 21px;&quot;&gt;HIGH from STM32?&lt;/font&gt;&lt;/div&gt;" style="rhombus;whiteSpace=wrap;html=1;aspect=fixed;" vertex="1" parent="Tr-3GjtO5WyHJFNXS32t-50">
          <mxGeometry x="603" y="846" width="156" height="156" as="geometry" />
        </mxCell>
        <mxCell id="Tr-3GjtO5WyHJFNXS32t-16" value="(Loop at 200 Hz)" style="text;html=1;align=center;verticalAlign=middle;resizable=0;points=[];autosize=1;strokeColor=none;fillColor=none;" vertex="1" parent="Tr-3GjtO5WyHJFNXS32t-50">
          <mxGeometry x="711" y="966" width="107" height="26" as="geometry" />
        </mxCell>
        <mxCell id="Tr-3GjtO5WyHJFNXS32t-33" value="" style="edgeStyle=orthogonalEdgeStyle;rounded=0;orthogonalLoop=1;jettySize=auto;html=1;" edge="1" parent="Tr-3GjtO5WyHJFNXS32t-50" source="Tr-3GjtO5WyHJFNXS32t-17" target="Tr-3GjtO5WyHJFNXS32t-32">
          <mxGeometry relative="1" as="geometry" />
        </mxCell>
        <mxCell id="Tr-3GjtO5WyHJFNXS32t-17" value="&lt;font style=&quot;font-size: 17px;&quot;&gt;Wait 600ms&lt;/font&gt;" style="whiteSpace=wrap;html=1;" vertex="1" parent="Tr-3GjtO5WyHJFNXS32t-50">
          <mxGeometry x="510" y="786" width="120" height="60" as="geometry" />
        </mxCell>
        <mxCell id="Tr-3GjtO5WyHJFNXS32t-24" value="" style="edgeStyle=orthogonalEdgeStyle;rounded=0;orthogonalLoop=1;jettySize=auto;html=1;" edge="1" parent="Tr-3GjtO5WyHJFNXS32t-50" source="Tr-3GjtO5WyHJFNXS32t-19" target="Tr-3GjtO5WyHJFNXS32t-23">
          <mxGeometry relative="1" as="geometry" />
        </mxCell>
        <mxCell id="Tr-3GjtO5WyHJFNXS32t-19" value="&lt;font style=&quot;font-size: 17px;&quot;&gt;Store from RHS in packet&lt;/font&gt;" style="whiteSpace=wrap;html=1;" vertex="1" parent="Tr-3GjtO5WyHJFNXS32t-50">
          <mxGeometry x="510" y="584" width="120" height="60" as="geometry" />
        </mxCell>
        <mxCell id="Tr-3GjtO5WyHJFNXS32t-36" style="edgeStyle=orthogonalEdgeStyle;rounded=0;orthogonalLoop=1;jettySize=auto;html=1;" edge="1" parent="Tr-3GjtO5WyHJFNXS32t-50" source="Tr-3GjtO5WyHJFNXS32t-23" target="Tr-3GjtO5WyHJFNXS32t-25">
          <mxGeometry relative="1" as="geometry" />
        </mxCell>
        <mxCell id="Tr-3GjtO5WyHJFNXS32t-37" value="NO" style="edgeLabel;html=1;align=center;verticalAlign=middle;resizable=0;points=[];" vertex="1" connectable="0" parent="Tr-3GjtO5WyHJFNXS32t-36">
          <mxGeometry x="-0.6414" y="3" relative="1" as="geometry">
            <mxPoint y="-3" as="offset" />
          </mxGeometry>
        </mxCell>
        <mxCell id="Tr-3GjtO5WyHJFNXS32t-39" style="edgeStyle=orthogonalEdgeStyle;rounded=0;orthogonalLoop=1;jettySize=auto;html=1;entryX=1;entryY=0.5;entryDx=0;entryDy=0;exitX=0.5;exitY=0;exitDx=0;exitDy=0;" edge="1" parent="Tr-3GjtO5WyHJFNXS32t-50" source="Tr-3GjtO5WyHJFNXS32t-23" target="Tr-3GjtO5WyHJFNXS32t-38">
          <mxGeometry relative="1" as="geometry" />
        </mxCell>
        <mxCell id="Tr-3GjtO5WyHJFNXS32t-40" value="YES" style="edgeLabel;html=1;align=center;verticalAlign=middle;resizable=0;points=[];" vertex="1" connectable="0" parent="Tr-3GjtO5WyHJFNXS32t-39">
          <mxGeometry x="-0.2011" y="2" relative="1" as="geometry">
            <mxPoint x="-66" y="-2" as="offset" />
          </mxGeometry>
        </mxCell>
        <mxCell id="Tr-3GjtO5WyHJFNXS32t-23" value="&lt;span style=&quot;font-size: 21px;&quot;&gt;Is packet&amp;nbsp;&lt;/span&gt;&lt;div&gt;&lt;span style=&quot;font-size: 21px;&quot;&gt;full?&lt;/span&gt;&lt;/div&gt;" style="rhombus;whiteSpace=wrap;html=1;aspect=fixed;" vertex="1" parent="Tr-3GjtO5WyHJFNXS32t-50">
          <mxGeometry x="492" y="386" width="156" height="156" as="geometry" />
        </mxCell>
        <mxCell id="Tr-3GjtO5WyHJFNXS32t-35" value="" style="edgeStyle=orthogonalEdgeStyle;rounded=0;orthogonalLoop=1;jettySize=auto;html=1;" edge="1" parent="Tr-3GjtO5WyHJFNXS32t-50" source="Tr-3GjtO5WyHJFNXS32t-25" target="Tr-3GjtO5WyHJFNXS32t-32">
          <mxGeometry relative="1" as="geometry" />
        </mxCell>
        <mxCell id="Tr-3GjtO5WyHJFNXS32t-25" value="&lt;span style=&quot;font-size: 17px;&quot;&gt;Wait 1 second&lt;/span&gt;" style="whiteSpace=wrap;html=1;" vertex="1" parent="Tr-3GjtO5WyHJFNXS32t-50">
          <mxGeometry x="323" y="687" width="120" height="60" as="geometry" />
        </mxCell>
        <mxCell id="Tr-3GjtO5WyHJFNXS32t-34" value="" style="edgeStyle=orthogonalEdgeStyle;rounded=0;orthogonalLoop=1;jettySize=auto;html=1;" edge="1" parent="Tr-3GjtO5WyHJFNXS32t-50" source="Tr-3GjtO5WyHJFNXS32t-32" target="Tr-3GjtO5WyHJFNXS32t-19">
          <mxGeometry relative="1" as="geometry" />
        </mxCell>
        <mxCell id="Tr-3GjtO5WyHJFNXS32t-32" value="&lt;span style=&quot;font-size: 17px;&quot;&gt;Read D5&lt;/span&gt;" style="whiteSpace=wrap;html=1;" vertex="1" parent="Tr-3GjtO5WyHJFNXS32t-50">
          <mxGeometry x="510" y="687" width="120" height="60" as="geometry" />
        </mxCell>
        <mxCell id="Tr-3GjtO5WyHJFNXS32t-42" value="" style="edgeStyle=orthogonalEdgeStyle;rounded=0;orthogonalLoop=1;jettySize=auto;html=1;" edge="1" parent="Tr-3GjtO5WyHJFNXS32t-50" source="Tr-3GjtO5WyHJFNXS32t-38" target="Tr-3GjtO5WyHJFNXS32t-41">
          <mxGeometry relative="1" as="geometry" />
        </mxCell>
        <mxCell id="Tr-3GjtO5WyHJFNXS32t-38" value="&lt;span style=&quot;font-size: 17px;&quot;&gt;Convert packet array to binary&lt;/span&gt;" style="whiteSpace=wrap;html=1;" vertex="1" parent="Tr-3GjtO5WyHJFNXS32t-50">
          <mxGeometry x="117" y="334" width="120" height="60" as="geometry" />
        </mxCell>
        <mxCell id="Tr-3GjtO5WyHJFNXS32t-44" value="" style="edgeStyle=orthogonalEdgeStyle;rounded=0;orthogonalLoop=1;jettySize=auto;html=1;" edge="1" parent="Tr-3GjtO5WyHJFNXS32t-50" source="Tr-3GjtO5WyHJFNXS32t-41" target="Tr-3GjtO5WyHJFNXS32t-43">
          <mxGeometry relative="1" as="geometry" />
        </mxCell>
        <mxCell id="Tr-3GjtO5WyHJFNXS32t-41" value="&lt;span style=&quot;font-size: 17px;&quot;&gt;Convert binary to hexadecimal&lt;/span&gt;" style="whiteSpace=wrap;html=1;" vertex="1" parent="Tr-3GjtO5WyHJFNXS32t-50">
          <mxGeometry x="117" y="442" width="120" height="60" as="geometry" />
        </mxCell>
        <mxCell id="Tr-3GjtO5WyHJFNXS32t-46" value="" style="edgeStyle=orthogonalEdgeStyle;rounded=0;orthogonalLoop=1;jettySize=auto;html=1;" edge="1" parent="Tr-3GjtO5WyHJFNXS32t-50" source="Tr-3GjtO5WyHJFNXS32t-43" target="Tr-3GjtO5WyHJFNXS32t-45">
          <mxGeometry relative="1" as="geometry" />
        </mxCell>
        <mxCell id="Tr-3GjtO5WyHJFNXS32t-43" value="&lt;span style=&quot;font-size: 17px;&quot;&gt;Convert binary to integer&lt;/span&gt;" style="whiteSpace=wrap;html=1;" vertex="1" parent="Tr-3GjtO5WyHJFNXS32t-50">
          <mxGeometry x="117" y="542" width="120" height="60" as="geometry" />
        </mxCell>
        <mxCell id="Tr-3GjtO5WyHJFNXS32t-48" value="" style="edgeStyle=orthogonalEdgeStyle;rounded=0;orthogonalLoop=1;jettySize=auto;html=1;" edge="1" parent="Tr-3GjtO5WyHJFNXS32t-50" source="Tr-3GjtO5WyHJFNXS32t-45" target="Tr-3GjtO5WyHJFNXS32t-47">
          <mxGeometry relative="1" as="geometry" />
        </mxCell>
        <mxCell id="Tr-3GjtO5WyHJFNXS32t-45" value="&lt;span style=&quot;font-size: 17px;&quot;&gt;Print to Serial Monitor&lt;/span&gt;" style="whiteSpace=wrap;html=1;" vertex="1" parent="Tr-3GjtO5WyHJFNXS32t-50">
          <mxGeometry x="117" y="644" width="120" height="60" as="geometry" />
        </mxCell>
        <mxCell id="Tr-3GjtO5WyHJFNXS32t-49" style="edgeStyle=orthogonalEdgeStyle;rounded=0;orthogonalLoop=1;jettySize=auto;html=1;entryX=1;entryY=0.5;entryDx=0;entryDy=0;" edge="1" parent="Tr-3GjtO5WyHJFNXS32t-50" source="Tr-3GjtO5WyHJFNXS32t-47" target="Tr-3GjtO5WyHJFNXS32t-8">
          <mxGeometry relative="1" as="geometry">
            <mxPoint x="962" y="728" as="targetPoint" />
            <Array as="points">
              <mxPoint x="177" y="1034" />
              <mxPoint x="962" y="1034" />
              <mxPoint x="962" y="762" />
            </Array>
          </mxGeometry>
        </mxCell>
        <mxCell id="Tr-3GjtO5WyHJFNXS32t-47" value="&lt;span style=&quot;font-size: 17px;&quot;&gt;Send over BT&lt;/span&gt;" style="whiteSpace=wrap;html=1;" vertex="1" parent="Tr-3GjtO5WyHJFNXS32t-50">
          <mxGeometry x="117" y="754" width="120" height="60" as="geometry" />
        </mxCell>
      </root>
    </mxGraphModel>
  </diagram>
</mxfile>
